<svg width="1909" height="247" viewBox="0 0 1909 247" fill="none" xmlns="http://www.w3.org/2000/svg">
<path d="M1081.5 47.6143V77.6143H1069.5C1063.66 78.0189 1061.32 79.4712 1061 87.1143V108.614C1060.39 115.235 1062.35 117.123 1069.5 117.614H1081.5V196.614C1082.95 211.611 1086.97 219.007 1095.5 228.114C1113.08 241.628 1126.6 244.973 1160.5 239.614C1168.43 237.218 1171.79 235.175 1172.5 228.114C1172.5 228.114 1175.5 217.614 1172.5 205.614C1169.5 193.614 1158.48 200.129 1149.5 196.614C1139.6 195.17 1137.56 192.258 1138 184.614V117.614H1165C1173.62 117.787 1177.69 117.203 1176.5 108.614V87.1143C1177.66 76.5069 1174.15 75.0653 1165 75.6143H1138V47.6143C1137.54 35.2177 1134.57 32.5288 1126.5 32.1143H1091C1083.29 34.7656 1081.32 38.2504 1081.5 47.6143Z" fill="black" stroke="black" stroke-width="2"/>
<path d="M974 71.1143C1023.67 71.1143 1064 110.033 1064 158.114C1064 206.195 1023.67 245.114 974 245.114C924.327 245.114 884 206.195 884 158.114C884 110.033 924.327 71.1143 974 71.1143Z" fill="black" stroke="black" stroke-width="2"/>
<path d="M879 117.614L848 137.614C842.085 129.69 838.426 125.954 831 121.114C822.976 117.006 818.486 116.372 810.5 117.614C802.533 119.618 798.767 121.553 793.5 126.614C787.261 134.226 785.565 138.775 784 147.114C782.42 157.232 782.527 162.755 786 172.114C788.577 182.069 791.461 186.073 798.5 191.114C807.495 197.196 813.225 198.366 824.5 197.114C833.94 193.816 838.235 190.757 844.5 183.614C847.363 179.507 849.156 179.739 852.5 182.114L880.5 200.114C883.877 202.092 883.542 204.086 880.5 208.614C874.006 221.517 867.337 227.272 851.5 235.614C838.084 240.842 830.24 241.697 816 241.614C799.621 241.962 791.128 240.29 777 234.614C763.72 228.579 756.45 224.324 745 209.114C736.442 195.138 732.761 186.744 730.5 169.614C729.029 149.684 729.836 138.832 737 120.614C745.982 102.899 752.331 94.1228 769.5 83.6144C785.462 75.8967 794.916 73.1473 813 72.1144C829.868 71.9591 839.256 72.7798 855.5 80.6144C869.123 88.1517 875.602 93.7478 883 108.614C886.326 112.515 883.856 114.36 879 117.614Z" fill="black" stroke="black" stroke-width="2"/>
<path d="M714 87.6635V227.583C714.459 235.956 711.895 237.495 705.423 238.114H668.09C660.229 238.215 658.037 235.866 658 227.583V87.6635C659.002 79.1754 660.968 77.9259 668.09 78.135C668.09 78.135 699.369 78.1351 705.423 78.135C711.477 78.1348 713.537 81.5715 714 87.6635Z" fill="black" stroke="black" stroke-width="2"/>
<path d="M531.5 79.1143H569.5C574.548 80.8551 576.245 82.8113 576 89.1143V108.614C584.925 89.5778 590.952 83.0278 603 76.6143C611.889 73.1994 626 74.6143 626 74.6143C626 74.6143 633.358 76.634 637 80.6143C639.101 82.7981 639.769 84.5379 639.5 89.1143L639.5 119.614C640.255 123.072 636.068 127.996 629 128.114C611.141 125.265 603.247 125.637 593.5 130.114C588.623 132.907 586.524 135.704 583 141.114C580.115 145.13 579.764 149.573 579.5 158.114V225.614C577.785 233.756 575.476 236.611 568.5 238.114H531.5C525.275 237.528 524.27 233.758 523.5 225.614V89.1143C524.406 83.7236 525.826 81.3127 531.5 79.1143Z" fill="black" stroke="black" stroke-width="2"/>
<path d="M92.0005 41.6141C97.2444 51.0447 103.988 54.332 117.001 57.6141C117.575 64.5122 115.482 68.4678 110.501 76.1141C105.104 85.0881 102.471 85.6711 95.0006 93.1141C92.5253 96.2148 93.0219 97.0801 95.0006 98.1141C99.4333 99.0526 102.246 98.8878 107.501 98.1141L114.501 96.1141C123.897 92.2573 128.854 89.1619 137.001 81.6141C145.101 73.6133 148.621 68.2824 153.501 57.6141C154.991 51.1528 155.475 47.633 155.501 41.6141C155.292 34.3536 154.941 30.8542 153.501 26.6141C145.713 4.59295 135.862 0.1855 114.501 1.11412C103.703 2.78888 98.3396 6.54256 94.0005 12.6141C88.1816 21.6492 87.7115 30.1729 92.0005 41.6141Z" fill="black" stroke="black" stroke-width="2"/>
<path d="M159 110.614L181.5 133.614C184.117 135.629 185.657 135.844 188.5 135.114L199 125.114C206.613 119.06 210.994 117.332 219 117.114C227.46 116.669 232.014 117.875 240 121.114C244.756 125.402 246.272 131.002 247.5 145.114L195.5 146.114C182.019 148.084 175.555 150.495 166 157.114C157.233 163.392 153.23 168.927 148.5 184.114C148.165 198.355 148.728 205.957 153.5 217.614C157.498 226.541 161.06 230.201 169 235.114C178.834 241.303 184.598 243.398 195.5 243.614H219C226.15 241.455 230.101 239.952 237 236.614L250.5 224.614L252 235.114C253.699 238.213 255.098 239.019 258 239.614H295C298.626 238.605 299.781 236.898 300.5 232.114V129.114C296.101 107.013 290.185 97.1309 272.5 84.6141C260.438 78.0485 253.303 75.9423 240 74.6141C226.14 72.6812 218.358 72.6154 204.5 74.6141C194.084 76.9883 188.399 79.2335 178.5 84.6141C168.781 91.712 164.57 96.1107 159 104.614C158.325 107.067 158.383 108.373 159 110.614Z" fill="black" stroke="black" stroke-width="2"/>
<path d="M242.454 196.098C245.225 188.511 245.837 183.584 245.954 174.098C232.883 173.904 225.553 173.705 212.454 176.598C206.541 178.558 203.814 180.771 200.454 187.098C197.348 195.772 199.235 200.969 205.954 205.098C213.258 208.366 217.416 209.054 224.954 208.098C233.324 205.677 238.28 204.099 242.454 196.098Z" fill="white" stroke="black" stroke-width="2"/>
<path d="M328 230.614V12.1143C328.964 7.04585 330.569 5.01649 337 4.11426H378C383.562 6.72373 384.844 8.95367 385.5 13.6143V92.1143C392.678 85.545 396.936 82.4506 405 78.1143C417.695 73.0666 425.002 72.0139 438.5 74.1143C449.778 75.8621 456.033 77.8658 467 84.1143C478.32 92.2734 483.786 97.5528 491.5 108.614C497.666 119.788 499.908 125.987 502 137.114C505.083 153.863 505.167 163.066 502 179.114C499.485 196.289 494.098 204.112 483.5 217.614C474.977 228.569 467.846 232.935 453 239.114C437.252 243.813 428.397 245.101 412.5 241.114C397.423 237.302 390.517 232.57 380 221.114V233.114C380.028 238.089 378.265 239.295 372.5 239.114H336.5C331.524 238.786 329.535 237.169 328 230.614Z" fill="black" stroke="black" stroke-width="2"/>
<path d="M1 231.614V14.1143C1.71399 9.07563 3.1477 6.93035 8 4.61426H50.5C54.8671 6.78222 55.8729 8.9971 56 14.1143L59 193.114H112C117.681 194.502 119.75 196.211 120 202.114V235.614C117.762 238.54 115.985 239.472 112 239.928H8C3.71492 237.876 2.29376 235.97 1 231.614Z" fill="black" stroke="black" stroke-width="2"/>
<path d="M686 13.1143C702.632 13.1143 716 25.7121 716 41.1143C716 56.5165 702.632 69.1143 686 69.1143C669.368 69.1143 656 56.5165 656 41.1143C656 25.7121 669.368 13.1143 686 13.1143Z" fill="black" stroke="black" stroke-width="2"/>
<path d="M416 117C432.895 117 447 134.875 447 157.5C447 180.125 432.895 198 416 198C399.105 198 385 180.125 385 157.5C385 134.875 399.105 117 416 117Z" fill="white" stroke="black" stroke-width="2"/>
<path d="M975 117.114C991.895 117.114 1006 134.989 1006 157.614C1006 180.239 991.895 198.114 975 198.114C958.105 198.114 944 180.239 944 157.614C944 134.989 958.105 117.114 975 117.114Z" fill="white" stroke="black" stroke-width="2"/>
<path d="M1420.94 108.915L1443.13 131.851C1445.71 133.86 1447.23 134.074 1450.03 133.346L1460.39 123.374C1467.9 117.337 1472.22 115.614 1480.12 115.396C1488.46 114.953 1492.95 116.156 1500.83 119.385C1505.52 123.661 1507.02 129.246 1508.23 143.319L1456.94 144.316C1443.64 146.281 1437.27 148.685 1427.84 155.285C1419.19 161.546 1415.25 167.065 1410.58 182.21C1410.25 196.412 1410.81 203.992 1415.51 215.617C1419.46 224.519 1422.97 228.169 1430.8 233.068C1440.5 239.24 1446.18 241.329 1456.94 241.544H1480.12C1487.17 239.392 1491.07 237.892 1497.87 234.564L1511.19 222.597L1512.67 233.068C1514.34 236.158 1515.72 236.963 1518.58 237.556H1555.08C1558.65 236.549 1559.79 234.847 1560.5 230.076V127.363C1556.16 105.323 1550.33 95.4689 1532.89 82.9869C1520.99 76.4396 1513.95 74.3393 1500.83 73.0148C1487.16 71.0872 1479.48 71.0217 1465.81 73.0148C1455.54 75.3823 1449.93 77.6213 1440.17 82.9869C1430.58 90.0651 1426.43 94.4516 1420.94 102.931C1420.27 105.378 1420.33 106.679 1420.94 108.915Z" fill="black" stroke="black" stroke-width="2"/>
<path d="M1585.5 229.044V16.5445C1586.43 11.7869 1588.44 10.7564 1594 11.0445H1630C1635.59 11.2039 1637.98 12.1738 1640 16.5445V95.0444C1647.18 88.4752 1654.44 80.8808 1662.5 76.5444C1675.2 71.4968 1682.51 70.4441 1696 72.5445C1707.28 74.2923 1713.54 76.296 1724.5 82.5444C1735.82 90.7036 1741.29 95.983 1749 107.044C1755.17 118.218 1757.41 124.417 1759.5 135.544C1762.59 152.293 1762.67 161.496 1759.5 177.544C1756.99 194.72 1751.6 202.542 1741 216.044C1732.48 227 1725.35 231.365 1710.5 237.544C1694.75 242.244 1685.9 243.531 1670 239.544C1654.93 235.732 1648.02 231 1637.5 219.544V231.544C1637.53 236.519 1635.77 239.726 1630 239.544H1594C1589.03 239.216 1587.04 235.6 1585.5 229.044Z" fill="black" stroke="black" stroke-width="2"/>
<path d="M1674 198C1691.67 198 1706 179.42 1706 156.5C1706 133.58 1691.67 115 1674 115C1656.33 115 1642 133.58 1642 156.5C1642 179.42 1656.33 198 1674 198Z" fill="white" stroke="black" stroke-width="2"/>
<path d="M1505.96 190.643C1508.73 183.055 1509.34 178.128 1509.46 168.643C1496.39 168.448 1489.06 168.249 1475.96 171.143C1470.04 173.102 1467.32 175.316 1463.96 181.643C1460.85 190.316 1462.74 195.514 1469.46 199.643C1476.76 202.911 1480.92 203.599 1488.46 202.643C1496.83 200.222 1501.78 198.643 1505.96 190.643Z" fill="white" stroke="black" stroke-width="2"/>
<path d="M1306 177.045V20.5449C1306.18 13.1338 1304.61 11.0972 1298.5 11.5449H1255.5C1250.07 11.5942 1248.67 13.8927 1248 20.5449V224.545C1247.92 233.447 1249.86 236.761 1260 237.045H1388.5C1395.31 234.327 1397.83 231.95 1397.5 224.545V193.545C1396.5 185.259 1392.92 183.445 1383.5 183.045H1311.5C1307.04 183.414 1305.62 182.362 1306 177.045Z" fill="black" stroke="black" stroke-width="2"/>
<path d="M1903.51 114.556L1866.01 126.556L1860.51 119.056C1854.19 111.896 1849.98 110.584 1842.01 110.056C1828.43 109.035 1822.15 111.447 1819.01 116.556C1816.31 122.991 1816.15 126.819 1824.51 130.056L1859.01 139.056C1876.59 142.715 1885.69 145.781 1897.51 157.056C1906.5 168.466 1909.17 175.873 1908.01 191.556C1904.66 211.114 1899.87 219.255 1885.51 228.056C1874.26 235.098 1868 237.696 1857.01 239.556C1841.95 241.799 1833.8 242.1 1820.01 240.556C1802.95 238.343 1795.51 234.93 1784.01 227.056C1770.91 214.778 1766.79 208.27 1767.01 197.556L1805.51 183.056C1810.94 193.168 1816.01 197.648 1829.01 203.556C1839.66 205.824 1845.58 205.527 1856.01 200.556C1863.59 189.907 1861.73 184.912 1854.01 181.056L1805.51 167.056C1783.19 156.792 1778.19 150.399 1774.51 138.556C1769.34 114.924 1774.79 103.964 1790.51 86.0558C1813.87 73.6018 1827.28 71.8371 1851.51 73.5558C1868.16 75.538 1876.35 79.1052 1889.51 88.5558C1899.72 98.9321 1904.17 104.69 1903.51 114.556Z" fill="black" stroke="black"/>
</svg>
